<?xml version="1.0" encoding="utf-8"?>
<!-- Generator: Adobe Illustrator 27.5.0, SVG Export Plug-In . SVG Version: 6.00 Build 0)  -->
<svg version="1.1" xmlns="http://www.w3.org/2000/svg" xmlns:xlink="http://www.w3.org/1999/xlink" x="0px" y="0px"
	 viewBox="0 0 2560 1440" style="enable-background:new 0 0 2560 1440;" xml:space="preserve">
<g id="BACKGROUND">
	<rect style="fill:#191B29;" width="2560" height="1440"/>
</g>
<g id="PHOTOS">
</g>
<g id="OBJECTS">
	<g>
		<path style="opacity:0.71;fill:#34374F;" d="M887.516,255.147c-256.731,0-464.853,208.122-464.853,464.853
			s208.121,464.853,464.853,464.853S1352.369,976.731,1352.369,720S1144.247,255.147,887.516,255.147z M887.516,977.73
			c-142.34,0-257.73-115.39-257.73-257.73s115.389-257.73,257.73-257.73s257.73,115.39,257.73,257.73
			S1029.857,977.73,887.516,977.73z"/>
		<path style="opacity:0.71;fill:#3B4059;" d="M887.516,342.352c-208.569,0-377.648,169.079-377.648,377.648
			s169.079,377.648,377.648,377.648S1265.165,928.569,1265.165,720S1096.086,342.352,887.516,342.352z M887.516,977.73
			c-142.34,0-257.73-115.39-257.73-257.73s115.389-257.73,257.73-257.73s257.73,115.39,257.73,257.73
			S1029.857,977.73,887.516,977.73z"/>
	</g>
	<g>
		<g>
			
				<line style="fill:none;stroke:#FFFFFF;stroke-width:8.4499;stroke-linecap:round;stroke-linejoin:round;stroke-miterlimit:10;" x1="743.951" y1="298.515" x2="743.951" y2="347.307"/>
			
				<line style="fill:none;stroke:#FFFFFF;stroke-width:8.4499;stroke-linecap:round;stroke-linejoin:round;stroke-miterlimit:10;" x1="719.555" y1="322.91" x2="768.347" y2="322.91"/>
		</g>
		<g>
			
				<line style="fill:none;stroke:#FFFFFF;stroke-width:8.4499;stroke-linecap:round;stroke-linejoin:round;stroke-miterlimit:10;" x1="685.161" y1="217.276" x2="685.161" y2="266.069"/>
			
				<line style="fill:none;stroke:#FFFFFF;stroke-width:8.4499;stroke-linecap:round;stroke-linejoin:round;stroke-miterlimit:10;" x1="660.766" y1="241.672" x2="709.558" y2="241.672"/>
		</g>
	</g>
	<g>
		<g>
			
				<line style="fill:none;stroke:#FFFFFF;stroke-width:8.4499;stroke-linecap:round;stroke-linejoin:round;stroke-miterlimit:10;" x1="1822.143" y1="1222.968" x2="1822.143" y2="1271.76"/>
			
				<line style="fill:none;stroke:#FFFFFF;stroke-width:8.4499;stroke-linecap:round;stroke-linejoin:round;stroke-miterlimit:10;" x1="1797.747" y1="1247.363" x2="1846.54" y2="1247.363"/>
		</g>
		<g>
			
				<line style="fill:none;stroke:#FFFFFF;stroke-width:8.4499;stroke-linecap:round;stroke-linejoin:round;stroke-miterlimit:10;" x1="1763.354" y1="1141.729" x2="1763.354" y2="1190.521"/>
			
				<line style="fill:none;stroke:#FFFFFF;stroke-width:8.4499;stroke-linecap:round;stroke-linejoin:round;stroke-miterlimit:10;" x1="1738.958" y1="1166.125" x2="1787.75" y2="1166.125"/>
		</g>
	</g>
	<g>
		<g>
			<polygon style="fill:#FF5853;" points="817.572,1132.719 817.572,1214.918 887.603,1173.819 			"/>
			<polygon style="fill:#FF5853;" points="887.516,1132.719 887.516,1214.918 957.547,1173.819 			"/>
			<polygon style="fill:#FF5853;" points="957.461,1132.719 957.461,1214.918 1027.491,1173.819 			"/>
		</g>
	</g>
	<g>
		<g>
			<g>
				<polygon style="fill:#FFFFFF;" points="1447.131,289.038 1447.131,371.658 1517.521,330.348 				"/>
			</g>
			<g>
				<polygon style="fill:#FFFFFF;" points="1517.434,289.038 1517.434,371.658 1587.823,330.348 				"/>
			</g>
			<g>
				<polygon style="fill:#FFFFFF;" points="1587.737,289.038 1587.737,371.658 1658.126,330.348 				"/>
			</g>
		</g>
	</g>
	<g>
		<g>
			<g>
				<g>
					<g>
						<polygon style="fill:#5B88D1;" points="1664.584,861.75 1440.673,861.75 1448.539,799.328 1450.5,783.644 1452.194,770.162 
							1454.179,754.478 1455.873,740.972 1457.858,725.288 1467.685,647.182 1637.573,647.182 1647.399,725.288 1649.384,740.972 
							1651.078,754.478 1653.063,770.162 1654.757,783.644 1656.718,799.328 						"/>
						<polygon style="fill:#FFFFFF;" points="1649.384,740.972 1455.873,740.972 1457.858,725.288 1647.399,725.288 						"/>
						<polygon style="fill:#FFFFFF;" points="1653.063,770.162 1452.194,770.162 1454.179,754.478 1651.078,754.478 						"/>
						<polygon style="fill:#FFFFFF;" points="1656.718,799.328 1448.539,799.328 1450.5,783.644 1654.757,783.644 						"/>
						<polygon style="fill:#4E77B7;" points="1467.679,647.183 1552.62,718.154 1637.562,647.183 						"/>
					</g>
					<g>
						
							<ellipse transform="matrix(0.1602 -0.9871 0.9871 0.1602 685.499 2154.7056)" style="fill:#191B29;" cx="1609.025" cy="674.499" rx="8.298" ry="8.298"/>
						
							<ellipse transform="matrix(0.1598 -0.9872 0.9872 0.1598 591.3318 2043.731)" style="fill:#191B29;" cx="1496.216" cy="674.499" rx="8.298" ry="8.298"/>
					</g>
				</g>
				<path style="fill:none;stroke:#FFFFFF;stroke-width:1.5635;stroke-miterlimit:10;" d="M1496.216,674.499v-78.016
					c0-31.151,25.253-56.405,56.405-56.405h0c31.151,0,56.405,25.253,56.405,56.405v78.016"/>
			</g>
			<g>
				<g>
					<g>
						<polygon style="fill:#FFBD36;" points="1942.393,647.183 1857.555,647.183 1857.349,647.183 1772.51,647.183 
							1745.493,861.755 1857.349,861.755 1857.555,861.755 1969.411,861.755 						"/>
						<polygon style="fill:#E6AB30;" points="1772.51,647.183 1857.452,725.293 1942.393,647.183 						"/>
					</g>
					<g>
						
							<ellipse transform="matrix(0.1602 -0.9871 0.9871 0.1602 941.5019 2455.6008)" style="fill:#191B29;" cx="1913.857" cy="674.499" rx="8.298" ry="8.298"/>
						
							<ellipse transform="matrix(0.1602 -0.9871 0.9871 0.1602 846.7623 2344.2478)" style="fill:#191B29;" cx="1801.047" cy="674.499" rx="8.298" ry="8.298"/>
					</g>
				</g>
				<path style="fill:none;stroke:#FFFFFF;stroke-width:1.5635;stroke-miterlimit:10;" d="M1801.047,674.499v-78.016
					c0-31.151,25.253-56.405,56.405-56.405h0c31.151,0,56.405,25.253,56.405,56.405v78.016"/>
				
					<rect x="1779.99" y="708.545" transform="matrix(0.7071 0.7071 -0.7071 0.7071 1035.1227 -1056.4)" style="fill:#FFFFFF;" width="25.517" height="25.517"/>
				
					<rect x="1902.081" y="731.397" transform="matrix(0.7071 0.7071 -0.7071 0.7071 1092.0146 -1138.0977)" style="fill:#FFFFFF;" width="35.464" height="35.464"/>
				
					<rect x="1834.155" y="762.71" transform="matrix(0.7071 0.7071 -0.7071 0.7071 1089.6691 -1078.9938)" style="fill:#FFFFFF;" width="26.28" height="26.28"/>
				
					<rect x="1891.278" y="807.985" transform="matrix(0.7071 0.7071 -0.7071 0.7071 1135.5795 -1104.951)" style="fill:#FFFFFF;" width="20.611" height="20.611"/>
				
					<rect x="1791.029" y="811.505" transform="matrix(0.7071 0.7071 -0.7071 0.7071 1108.7067 -1033.0331)" style="fill:#FFFFFF;" width="20.611" height="20.611"/>
			</g>
		</g>
		<g>
			<g>
				<g>
					<polygon style="fill:#FF5853;" points="1804.797,657.391 1705.157,657.391 1704.916,657.391 1605.275,657.391 
						1573.544,909.399 1704.916,909.399 1705.157,909.399 1836.529,909.399 					"/>
					<g>
						
							<ellipse transform="matrix(0.7071 -0.7071 0.7071 0.7071 -56.9518 1387.1462)" style="fill:#FFBD36;" cx="1645.958" cy="762.32" rx="28.806" ry="28.806"/>
						
							<ellipse transform="matrix(0.2298 -0.9732 0.9732 0.2298 584.7055 2346.2397)" style="fill:#FFBD36;" cx="1774.654" cy="803.716" rx="18.095" ry="18.095"/>
						
							<ellipse transform="matrix(0.7071 -0.7071 0.7071 0.7071 -21.1214 1452.5673)" style="fill:#FFBD36;" cx="1742.843" cy="751.779" rx="15.445" ry="15.445"/>
						
							<ellipse transform="matrix(0.2298 -0.9732 0.9732 0.2298 409.8 2257.7771)" style="fill:#FFBD36;" cx="1631.311" cy="869.986" rx="15.445" ry="15.445"/>
						<circle style="fill:#FFBD36;" cx="1687.532" cy="834.009" r="12.198"/>
						<circle style="fill:#FFBD36;" cx="1745.848" cy="861.755" r="19.393"/>
					</g>
					<polygon style="fill:#E0423F;" points="1605.275,657.391 1705.036,749.13 1804.797,657.391 					"/>
				</g>
				<g>
					
						<ellipse transform="matrix(0.7071 -0.7071 0.7071 0.7071 31.2651 1454.4276)" style="fill:#191B29;" cx="1771.282" cy="689.473" rx="9.746" ry="9.746"/>
					
						<ellipse transform="matrix(0.1602 -0.9871 0.9871 0.1602 695.714 2196.6611)" style="fill:#191B29;" cx="1638.79" cy="689.473" rx="9.746" ry="9.746"/>
				</g>
			</g>
			<path style="fill:none;stroke:#FFFFFF;stroke-width:1.8363;stroke-miterlimit:10;" d="M1638.79,689.474v-91.627
				c0-36.586,29.659-66.246,66.246-66.246h0c36.587,0,66.246,29.659,66.246,66.246v91.627"/>
		</g>
	</g>
	<g>
		<defs>
			
				<rect id="SVGID_1_" x="1167.675" y="-94.672" transform="matrix(6.123234e-17 -1 1 6.123234e-17 1167.6753 1481.3077)" width="313.632" height="502.976"/>
		</defs>
		<clipPath id="SVGID_00000136372765571089853060000009306476562646115724_">
			<use xlink:href="#SVGID_1_"  style="overflow:visible;"/>
		</clipPath>
		<g style="clip-path:url(#SVGID_00000136372765571089853060000009306476562646115724_);">
			
				<ellipse transform="matrix(0.7071 -0.7071 0.7071 0.7071 389.0736 939.307)" style="fill:none;stroke:#FFFFFF;stroke-width:32.6756;stroke-miterlimit:10;" cx="1328.381" cy="0" rx="173.951" ry="173.951"/>
			
				<ellipse transform="matrix(0.7071 -0.7071 0.7071 0.7071 389.0736 939.307)" style="fill:none;stroke:#FF5853;stroke-width:18.3741;stroke-miterlimit:10;" cx="1328.381" cy="0" rx="111.463" ry="111.463"/>
		</g>
	</g>
	<g>
		<defs>
			
				<rect id="SVGID_00000096776948637214550380000015915100944697327763_" x="2246.368" y="468.512" width="313.632" height="502.976"/>
		</defs>
		<clipPath id="SVGID_00000031896036200306145950000004105686561399181236_">
			<use xlink:href="#SVGID_00000096776948637214550380000015915100944697327763_"  style="overflow:visible;"/>
		</clipPath>
		<g style="clip-path:url(#SVGID_00000031896036200306145950000004105686561399181236_);">
			
				<ellipse transform="matrix(0.7071 -0.7071 0.7071 0.7071 237.9397 2022.2156)" style="fill:none;stroke:#FFFFFF;stroke-width:32.6756;stroke-miterlimit:10;" cx="2560" cy="723.889" rx="173.951" ry="173.951"/>
			
				<ellipse transform="matrix(0.7071 -0.7071 0.7071 0.7071 237.9397 2022.2156)" style="fill:none;stroke:#FF5853;stroke-width:18.3741;stroke-miterlimit:10;" cx="2560" cy="723.889" rx="111.463" ry="111.463"/>
		</g>
	</g>
	<g>
		<defs>
			
				<rect id="SVGID_00000126291453351866261570000007900990131651840938_" x="306.252" y="1031.696" transform="matrix(-1.836970e-16 1 -1 -1.836970e-16 1746.2524 820.1154)" width="313.632" height="502.976"/>
		</defs>
		<clipPath id="SVGID_00000083810071479788065770000009435995309363666111_">
			<use xlink:href="#SVGID_00000126291453351866261570000007900990131651840938_"  style="overflow:visible;"/>
		</clipPath>
		<g style="clip-path:url(#SVGID_00000083810071479788065770000009435995309363666111_);">
			
				<ellipse transform="matrix(0.7071 -0.7071 0.7071 0.7071 -883.7432 746.4551)" style="fill:none;stroke:#FFFFFF;stroke-width:32.6756;stroke-miterlimit:10;" cx="459.179" cy="1440" rx="173.951" ry="173.951"/>
			
				<ellipse transform="matrix(0.7071 -0.7071 0.7071 0.7071 -883.7432 746.4551)" style="fill:none;stroke:#FF5853;stroke-width:18.3741;stroke-miterlimit:10;" cx="459.179" cy="1440" rx="111.463" ry="111.463"/>
		</g>
	</g>
	<g>
		<g>
			<path style="fill:#FFFFFF;" d="M2283.572,202.785c0,2.966-2.404,5.37-5.37,5.37s-5.37-2.404-5.37-5.37
				c0-2.966,2.404-5.37,5.37-5.37S2283.572,199.819,2283.572,202.785z"/>
			<path style="fill:#FFFFFF;" d="M2325.443,202.785c0,2.966-2.404,5.37-5.37,5.37c-2.966,0-5.37-2.404-5.37-5.37
				c0-2.966,2.404-5.37,5.37-5.37C2323.039,197.415,2325.443,199.819,2325.443,202.785z"/>
			<path style="fill:#FFFFFF;" d="M2367.314,202.785c0,2.966-2.404,5.37-5.37,5.37c-2.966,0-5.37-2.404-5.37-5.37
				c0-2.966,2.404-5.37,5.37-5.37C2364.91,197.415,2367.314,199.819,2367.314,202.785z"/>
			<path style="fill:#FFFFFF;" d="M2409.186,202.785c0,2.966-2.404,5.37-5.37,5.37s-5.37-2.404-5.37-5.37
				c0-2.966,2.404-5.37,5.37-5.37S2409.186,199.819,2409.186,202.785z"/>
			<path style="fill:#FFFFFF;" d="M2451.057,202.785c0,2.966-2.404,5.37-5.37,5.37c-2.966,0-5.37-2.404-5.37-5.37
				c0-2.966,2.404-5.37,5.37-5.37C2448.653,197.415,2451.057,199.819,2451.057,202.785z"/>
		</g>
		<g>
			<path style="fill:#FFFFFF;" d="M2283.572,231.012c0,2.966-2.404,5.37-5.37,5.37s-5.37-2.404-5.37-5.37
				c0-2.966,2.404-5.37,5.37-5.37S2283.572,228.046,2283.572,231.012z"/>
			<path style="fill:#FFFFFF;" d="M2325.443,231.012c0,2.966-2.404,5.37-5.37,5.37c-2.966,0-5.37-2.404-5.37-5.37
				c0-2.966,2.404-5.37,5.37-5.37C2323.039,225.642,2325.443,228.046,2325.443,231.012z"/>
			<path style="fill:#FFFFFF;" d="M2367.314,231.012c0,2.966-2.404,5.37-5.37,5.37c-2.966,0-5.37-2.404-5.37-5.37
				c0-2.966,2.404-5.37,5.37-5.37C2364.91,225.642,2367.314,228.046,2367.314,231.012z"/>
			<path style="fill:#FFFFFF;" d="M2409.186,231.012c0,2.966-2.404,5.37-5.37,5.37s-5.37-2.404-5.37-5.37
				c0-2.966,2.404-5.37,5.37-5.37S2409.186,228.046,2409.186,231.012z"/>
			<path style="fill:#FFFFFF;" d="M2451.057,231.012c0,2.966-2.404,5.37-5.37,5.37c-2.966,0-5.37-2.404-5.37-5.37
				c0-2.966,2.404-5.37,5.37-5.37C2448.653,225.642,2451.057,228.046,2451.057,231.012z"/>
		</g>
		<g>
			<path style="fill:#FFFFFF;" d="M2283.572,259.239c0,2.966-2.404,5.37-5.37,5.37s-5.37-2.404-5.37-5.37
				c0-2.966,2.404-5.37,5.37-5.37S2283.572,256.273,2283.572,259.239z"/>
			<path style="fill:#FFFFFF;" d="M2325.443,259.239c0,2.966-2.404,5.37-5.37,5.37c-2.966,0-5.37-2.404-5.37-5.37
				c0-2.966,2.404-5.37,5.37-5.37C2323.039,253.869,2325.443,256.273,2325.443,259.239z"/>
			<path style="fill:#FFFFFF;" d="M2367.314,259.239c0,2.966-2.404,5.37-5.37,5.37c-2.966,0-5.37-2.404-5.37-5.37
				c0-2.966,2.404-5.37,5.37-5.37C2364.91,253.869,2367.314,256.273,2367.314,259.239z"/>
			<path style="fill:#FFFFFF;" d="M2409.186,259.239c0,2.966-2.404,5.37-5.37,5.37s-5.37-2.404-5.37-5.37
				c0-2.966,2.404-5.37,5.37-5.37S2409.186,256.273,2409.186,259.239z"/>
			<path style="fill:#FFFFFF;" d="M2451.057,259.239c0,2.966-2.404,5.37-5.37,5.37c-2.966,0-5.37-2.404-5.37-5.37
				c0-2.966,2.404-5.37,5.37-5.37C2448.653,253.869,2451.057,256.273,2451.057,259.239z"/>
		</g>
	</g>
	<g>
		<g>
			<path style="fill:#FFFFFF;" d="M109.726,1069.421c0,2.966-2.404,5.37-5.37,5.37c-2.966,0-5.37-2.404-5.37-5.37
				s2.404-5.37,5.37-5.37C107.322,1064.052,109.726,1066.456,109.726,1069.421z"/>
			<circle style="fill:#FFFFFF;" cx="146.227" cy="1069.421" r="5.37"/>
			<path style="fill:#FFFFFF;" d="M193.468,1069.421c0,2.966-2.404,5.37-5.37,5.37c-2.966,0-5.37-2.404-5.37-5.37
				s2.404-5.37,5.37-5.37C191.064,1064.052,193.468,1066.456,193.468,1069.421z"/>
			<path style="fill:#FFFFFF;" d="M235.339,1069.421c0,2.966-2.404,5.37-5.37,5.37s-5.37-2.404-5.37-5.37s2.404-5.37,5.37-5.37
				S235.339,1066.456,235.339,1069.421z"/>
			<circle style="fill:#FFFFFF;" cx="271.841" cy="1069.421" r="5.37"/>
		</g>
		<g>
			<path style="fill:#FFFFFF;" d="M109.726,1097.648c0,2.966-2.404,5.37-5.37,5.37c-2.966,0-5.37-2.404-5.37-5.37
				s2.404-5.37,5.37-5.37C107.322,1092.278,109.726,1094.682,109.726,1097.648z"/>
			<circle style="fill:#FFFFFF;" cx="146.227" cy="1097.648" r="5.37"/>
			<path style="fill:#FFFFFF;" d="M193.468,1097.648c0,2.966-2.404,5.37-5.37,5.37c-2.966,0-5.37-2.404-5.37-5.37
				s2.404-5.37,5.37-5.37C191.064,1092.278,193.468,1094.682,193.468,1097.648z"/>
			<path style="fill:#FFFFFF;" d="M235.339,1097.648c0,2.966-2.404,5.37-5.37,5.37s-5.37-2.404-5.37-5.37s2.404-5.37,5.37-5.37
				S235.339,1094.682,235.339,1097.648z"/>
			<circle style="fill:#FFFFFF;" cx="271.841" cy="1097.648" r="5.37"/>
		</g>
		<g>
			<path style="fill:#FFFFFF;" d="M109.726,1125.875c0,2.966-2.404,5.37-5.37,5.37c-2.966,0-5.37-2.404-5.37-5.37
				s2.404-5.37,5.37-5.37C107.322,1120.505,109.726,1122.909,109.726,1125.875z"/>
			<circle style="fill:#FFFFFF;" cx="146.227" cy="1125.875" r="5.37"/>
			<path style="fill:#FFFFFF;" d="M193.468,1125.875c0,2.966-2.404,5.37-5.37,5.37c-2.966,0-5.37-2.404-5.37-5.37
				s2.404-5.37,5.37-5.37C191.064,1120.505,193.468,1122.909,193.468,1125.875z"/>
			<path style="fill:#FFFFFF;" d="M235.339,1125.875c0,2.966-2.404,5.37-5.37,5.37s-5.37-2.404-5.37-5.37s2.404-5.37,5.37-5.37
				S235.339,1122.909,235.339,1125.875z"/>
			<circle style="fill:#FFFFFF;" cx="271.841" cy="1125.875" r="5.37"/>
		</g>
	</g>
	<g>
		<defs>
			<rect id="SVGID_00000050659118191541051220000015978607932692228263_" width="817.572" height="402.106"/>
		</defs>
		<clipPath id="SVGID_00000145749991410513996640000017519066331338482307_">
			<use xlink:href="#SVGID_00000050659118191541051220000015978607932692228263_"  style="overflow:visible;"/>
		</clipPath>
		<path style="clip-path:url(#SVGID_00000145749991410513996640000017519066331338482307_);fill:#FF5853;" d="M511.895,117.405
			c-6.283-0.042-12.597-0.313-18.942-0.824c-43.535-3.511-84.785-17.989-127.717-23.563c-37.939-4.926-78.507-3.208-113.466,13.693
			c-33.247,16.074-54.72,47.184-68.878,80.359c-12.992,30.441-20.748,62.859-32.722,93.715
			c-9.467,24.395-22.042,48.387-41.885,65.446c-26.29,22.603-55.706,23.048-88.183,25.985
			c-64.091,5.797-126.061,32.996-173.714,76.244c-36.558,33.178-64.345,74.894-99.313,109.744s-81.05,63.688-130.304,60.317
			c-49.103-3.36-91.608-38.976-115.249-82.145c-23.641-43.169-31.318-93.134-35.826-142.145
			c-10.656-115.856-4.644-237.388,48.551-340.861c63.651-123.813,188.69-207.335,321.364-249.511
			c132.674-42.175,273.896-47.726,413.098-49.743c95.58-1.384,191.728-0.771,286.656,11.702
			c72.138,9.478,216.124,23.693,267.795,82.661C895.704-45.905,713.031,59.057,633.904,91.619
			C594.774,107.721,554.046,117.69,511.895,117.405z"/>
		
			<path style="clip-path:url(#SVGID_00000145749991410513996640000017519066331338482307_);fill:none;stroke:#FFFFFF;stroke-width:2.4888;stroke-miterlimit:10;" d="
			M502.337,82.441c-6.283-0.043-12.597-0.313-18.942-0.825c-43.535-3.511-84.785-17.989-127.717-23.563
			c-37.939-4.926-78.507-3.208-113.466,13.693c-33.247,16.074-54.72,47.184-68.878,80.359
			c-12.992,30.441-20.748,62.859-32.722,93.715c-9.467,24.395-22.042,48.387-41.885,65.446
			c-26.29,22.602-55.706,23.047-88.183,25.985c-64.091,5.797-126.061,32.996-173.714,76.243
			c-36.558,33.178-64.345,74.894-99.313,109.744s-81.05,63.688-130.304,60.317c-49.103-3.361-91.608-38.976-115.249-82.145
			c-23.641-43.169-31.318-93.134-35.826-142.145c-10.656-115.856-4.643-237.388,48.551-340.861
			c63.651-123.813,188.69-207.335,321.364-249.511c132.674-42.175,273.896-47.726,413.098-49.742
			c95.58-1.384,191.728-0.771,286.656,11.702c72.138,9.478,216.124,23.693,267.795,82.661
			C886.146-80.87,703.474,24.093,624.346,56.655C585.216,72.757,544.488,82.726,502.337,82.441z"/>
	</g>
	<g>
		<defs>
			
				<rect id="SVGID_00000145033240755300798450000017606908766408364217_" x="1732.251" y="1032.889" transform="matrix(-1 -1.224647e-16 1.224647e-16 -1 4292.251 2472.8887)" width="827.749" height="407.111"/>
		</defs>
		<clipPath id="SVGID_00000080169469340659571830000018227870929263562174_">
			<use xlink:href="#SVGID_00000145033240755300798450000017606908766408364217_"  style="overflow:visible;"/>
		</clipPath>
		<path style="clip-path:url(#SVGID_00000080169469340659571830000018227870929263562174_);fill:#5B88D1;" d="M2041.734,1321.133
			c6.361,0.043,12.754,0.317,19.178,0.835c44.077,3.555,85.84,18.212,129.307,23.856c38.411,4.987,79.484,3.248,114.878-13.864
			c33.661-16.274,55.401-47.771,69.736-81.359c13.153-30.82,21.007-63.641,33.13-94.881c9.584-24.699,22.317-48.989,42.406-66.261
			c26.617-22.884,56.399-23.334,89.281-26.309c64.888-5.869,127.63-33.407,175.876-77.193
			c37.013-33.591,65.146-75.826,100.549-111.11c35.402-35.284,82.059-64.481,131.926-61.068
			c49.715,3.402,92.749,39.461,116.684,83.167c23.935,43.706,31.708,94.293,36.272,143.914
			c10.789,117.298,4.701,240.343-49.155,345.104c-64.443,125.354-191.038,209.916-325.364,252.617
			c-134.325,42.7-277.306,48.32-418.24,50.362c-96.77,1.402-194.114,0.781-290.224-11.848
			c-73.036-9.596-218.814-23.988-271.129-83.69c-93.697-106.93,91.249-213.199,171.362-246.166
			C1957.823,1330.938,1999.058,1320.845,2041.734,1321.133z"/>
		
			<path style="clip-path:url(#SVGID_00000080169469340659571830000018227870929263562174_);fill:none;stroke:#FFFFFF;stroke-width:3.5784;stroke-miterlimit:10;" d="
			M2051.41,1356.533c6.361,0.043,12.754,0.317,19.178,0.835c44.077,3.555,85.84,18.213,129.307,23.856
			c38.411,4.987,79.484,3.248,114.878-13.864c33.661-16.274,55.401-47.771,69.736-81.359c13.153-30.82,21.007-63.641,33.13-94.881
			c9.584-24.699,22.317-48.989,42.406-66.261c26.617-22.884,56.399-23.334,89.281-26.309c64.888-5.869,127.63-33.407,175.876-77.192
			c37.013-33.591,65.146-75.826,100.549-111.11c35.402-35.284,82.059-64.481,131.926-61.068
			c49.715,3.402,92.749,39.461,116.684,83.167c23.935,43.706,31.708,94.293,36.272,143.914
			c10.789,117.298,4.701,240.343-49.155,345.104c-64.443,125.354-191.038,209.916-325.364,252.617
			c-134.325,42.7-277.306,48.32-418.24,50.362c-96.77,1.401-194.114,0.781-290.224-11.848
			c-73.036-9.596-218.814-23.988-271.129-83.69c-93.697-106.929,91.249-213.198,171.362-246.166
			C1967.499,1366.337,2008.734,1356.244,2051.41,1356.533z"/>
	</g>
	<g>
		<path style="fill:none;stroke:#FFFFFF;stroke-width:5;stroke-linecap:round;stroke-linejoin:round;stroke-miterlimit:10;" d="
			M1353.448,1293.753l-50.656-26.363c-10.853-5.648-15.072-19.025-9.424-29.878l45.636-87.689
			c5.648-10.853,19.025-15.072,29.878-9.424l50.656,26.363c10.853,5.648,15.072,19.025,9.424,29.878l-45.636,87.689
			C1377.678,1295.182,1364.302,1299.401,1353.448,1293.753z"/>
		<path style="fill:none;stroke:#FFFFFF;stroke-width:5;stroke-linecap:round;stroke-linejoin:round;stroke-miterlimit:10;" d="
			M1415.476,1199.962l-36.417,69.976l-71.471-37.195l36.417-69.976c4.74-9.107,15.559-12.822,24.191-8.329l40.245,20.945
			C1417.05,1179.863,1420.215,1190.855,1415.476,1199.962z"/>
		
			<polyline style="fill:none;stroke:#FFFFFF;stroke-width:5;stroke-linecap:round;stroke-linejoin:round;stroke-miterlimit:10;" points="
			1388.316,1274.756 1382.217,1271.582 1304.428,1231.099 1298.355,1227.938 		"/>
		
			<ellipse transform="matrix(0.586 -0.8103 0.8103 0.586 -472.3611 1606.4021)" style="fill:none;stroke:#FFFFFF;stroke-width:5;stroke-linecap:round;stroke-linejoin:round;stroke-miterlimit:10;" cx="1335.881" cy="1265.464" rx="7.852" ry="7.852"/>
		
			<line style="fill:none;stroke:#FFFFFF;stroke-width:5;stroke-linecap:round;stroke-linejoin:round;stroke-miterlimit:10;" x1="1347.416" y1="1197.095" x2="1398.323" y2="1191.689"/>
		
			<line style="fill:none;stroke:#FFFFFF;stroke-width:5;stroke-linecap:round;stroke-linejoin:round;stroke-miterlimit:10;" x1="1340.884" y1="1209.646" x2="1391.792" y2="1204.24"/>
	</g>
	<g>
		
			<polyline style="fill:none;stroke:#FFFFFF;stroke-width:5;stroke-linecap:round;stroke-linejoin:round;stroke-miterlimit:10;" points="
			2103.229,160.564 2108.664,183.993 2122.913,180.255 2101.142,97.28 2071.185,105.14 2034.15,203.544 1985.33,216.353 
			2015.342,149.067 2059.876,135.186 		"/>
		
			<line style="fill:none;stroke:#FFFFFF;stroke-width:5;stroke-linecap:round;stroke-linejoin:round;stroke-miterlimit:10;" x1="2103.229" y1="160.564" x2="2116.812" y2="157.001"/>
	</g>
	<g>
		<path style="fill:none;stroke:#FFFFFF;stroke-width:5;stroke-linecap:round;stroke-linejoin:round;stroke-miterlimit:10;" d="
			M387.771,245.394c-7.39-8.663-16.533-15.794-27.057-20.143c-22.44-9.272-37.12-1.802-37.12-1.802
			c-0.034,0.055-0.072,0.098-0.106,0.153l-0.048-0.074c0,0-0.093,0.198-0.234,0.48c-5.634,8.79-12.07,14.384-18.318,17.884
			c-0.316,0.164-0.615,0.337-0.94,0.497c-0.321,0.169-0.636,0.309-0.955,0.467c-6.507,2.991-14.817,4.901-25.24,4.282
			c-0.311-0.052-0.526-0.094-0.526-0.094l0.032,0.083c-0.065-0.004-0.121,0.001-0.186-0.004c0,0-14.679,7.47-20.392,31.069
			c-2.679,11.067-2.296,22.656,0.358,33.729l5.441,22.706l27.106-5.561l1.062-18.502l39.023,76.684l8.477-4.314l59.291-30.172
			l8.477-4.314l-39.023-76.684l15.582,10.032l20.45-18.639L387.771,245.394z"/>
		
			<line style="fill:none;stroke:#FFFFFF;stroke-width:5;stroke-linecap:round;stroke-linejoin:round;stroke-miterlimit:10;" x1="304.426" y1="337.64" x2="379.869" y2="297.266"/>
		
			<line style="fill:none;stroke:#FFFFFF;stroke-width:5;stroke-linecap:round;stroke-linejoin:round;stroke-miterlimit:10;" x1="311.252" y1="350.535" x2="386.695" y2="310.161"/>
	</g>
</g>
<g id="TEXTS">
	<g>
		
			<text transform="matrix(1 0 0 1 664.608 641.8741)" style="fill:#FFFFFF; font-family:'Courgette-Regular'; font-size:116.0925px;">Shopping</text>
	</g>
	<g>
		
			<text transform="matrix(1 0 0 1 594.9654 882.7657)" style="fill:#FFFFFF; font-family:'Courgette-Regular'; font-size:67.8225px;">Your shopping place</text>
	</g>
	<g>
		
			<text transform="matrix(1 0 0 1 614.3511 772.2189)" style="fill:#FFFFFF; font-family:'Montserrat-ExtraBold'; font-size:133.2455px;">CENTER</text>
	</g>
</g>
</svg>
